# xmcd
#
# Track frame offsets: 
#        150
#        17555
#        35422
#        56230
#        74772
#        104340
#        137067
#        160135
#        186735
#        229980
#
# Disc length: 3324 seconds
#
# Revision: 2
# Processed by: cddbd v1.5.1PL0 Copyright (c) Steve Scherf et al.
# Submitted via: ExactAudioCopy v0.95a5
#
DISCID=950cfa0a
DTITLE=Cowboy Junkies - 200 More Miles [CDtwo)
DYEAR=1995
DGENRE=Rock
TTITLE0=Sweet Jane
TTITLE1=If You Were The Woman And I Was The Man
TTITLE2=Pale Sun
TTITLE3=Hunted
TTITLE4=Lost My Driving Wheel
TTITLE5=Forgive Me
TTITLE6=Misguided Angel
TTITLE7=I'm So Lonesome I Could Cry
TTITLE8=Walking After Midnight
TTITLE9=Bad Boy (Hidden Track)
EXTD=Live Performances 1985 - 1994
EXTT0=
EXTT1=
EXTT2=
EXTT3=
EXTT4=
EXTT5=
EXTT6=
EXTT7=
EXTT8=
EXTT9=
PLAYORDER=
